<?xml version="1.0" encoding="UTF-8"?>
<svg width="227px" height="227px" viewBox="0 0 227 227" version="1.1" xmlns="http://www.w3.org/2000/svg" xmlns:xlink="http://www.w3.org/1999/xlink">
    <!-- Generator: Sketch 61 (89581) - https://sketch.com -->
    <title>RSE-Community-logo</title>
    <desc>Created with Sketch.</desc>
    <defs>
        <linearGradient x1="93.289886%" y1="70.6246168%" x2="3.82336262%" y2="22.8040514%" id="linearGradient-1">
            <stop stop-color="#6347C3" offset="0%"></stop>
            <stop stop-color="#806CC3" offset="100%"></stop>
        </linearGradient>
        <linearGradient x1="50%" y1="0%" x2="50%" y2="100%" id="linearGradient-2">
            <stop stop-color="#BD2087" offset="0%"></stop>
            <stop stop-color="#880E4F" offset="100%"></stop>
        </linearGradient>
        <linearGradient x1="45.1423531%" y1="100%" x2="50%" y2="13.1587869%" id="linearGradient-3">
            <stop stop-color="#A98FC4" offset="0%"></stop>
            <stop stop-color="#705692" offset="100%"></stop>
        </linearGradient>
        <linearGradient x1="50%" y1="0%" x2="50%" y2="100%" id="linearGradient-4">
            <stop stop-color="#B7A4CB" offset="0%"></stop>
            <stop stop-color="#816B9C" offset="100%"></stop>
        </linearGradient>
        <linearGradient x1="50%" y1="-40.4556246%" x2="50%" y2="77.0440733%" id="linearGradient-5">
            <stop stop-color="#9B76A9" offset="0%"></stop>
            <stop stop-color="#624170" offset="100%"></stop>
        </linearGradient>
    </defs>
    <g id="RSE-Community-logo" stroke="none" stroke-width="1" fill="none" fill-rule="evenodd">
        <g id="Logo" transform="translate(12.000000, -10.000000)">
            <g id="half-face">
                <polygon id="Path-27" fill="#4C2CBB" points="1.94993109 10.2331055 47.1606221 10.2331055 53.5950595 25.5510032 54.4922867 27.2332164 70.3007554 34.6612352 72.6927338 35.3824015 101 35.3824015 101 88.1037662 38.5029929 27.2332164"></polygon>
                <polygon id="Path-28" fill="url(#linearGradient-1)" points="0.5 11.1213406 37.8582377 29.1100461 99.4580543 89.2612199 91.6707295 88.9731869 67.8789146 68.8857903 22.8960562 53.3172583 5.63202526 28.4573033"></polygon>
                <polygon id="Path-36" fill="#816BB2" points="90.04779 90.1656709 74.1400993 105.903327 65.478247 98.6910262 78.0587228 90.1656709 63.9432066 78.8513406 55.3995297 78.8513406 41.4101328 61.5838909 66.8861502 70.3323693"></polygon>
                <polygon id="Path-37" fill="#A380D1" points="37.9946463 60.2294024 52.6408489 78.8513406 31.5199194 68.4470999 26.0458919 65.2425877 31.5199194 60.2294024"></polygon>
                <polygon id="Path-38" fill="#772C92" points="31.3971063 70.8975498 47.9854667 78.8513406 26.4186271 77.3836482"></polygon>
                <polygon id="Path-39" fill="#7C63B9" points="52.0612949 81.0172482 56.8780142 89.8590333 58.0210235 91.6705642 62.1706325 98.2282659 34.3352707 126.660762 26.2555193 106.883819 25.8924527 104.797432 25.4323318 79.4153711"></polygon>
                <polygon id="Path-40" fill="url(#linearGradient-2)" points="54.4922867 80.8825581 63.4911952 80.8825581 75.4326784 90.0440489 63.9319644 97.0638158"></polygon>
                <polygon id="Path-43" fill="url(#linearGradient-3)" points="23.7499538 81.7334895 9.1441812 157.228589 16.5101875 153.408748 32.675525 128.722911 23.7499538 107.371119"></polygon>
                <polygon id="Path-44" fill="#B7ABD3" points="63.4911952 100.228401 35.0655791 128.722911 42.3264614 144.924788 64.4409059 138.482407 66.3245218 138.915286 101 158.992953 100.975867 144.924788 93.4644717 135.278653 93.4644717 122.99052 80.4700371 115.034455 78.7142646 113.912712"></polygon>
                <polygon id="Path-46" fill="#7056A8" points="92.1056939 91.4787258 100.975867 91.4787258 100.975867 98.6504855 91.6514711 108.835367 93.6514711 120.610574 80.5458477 112.799055 75.4326784 107.426354"></polygon>
                <polygon id="Path-48" fill="url(#linearGradient-4)" points="65.1274429 140.433771 100.975867 161.296836 100.975867 236.464266 52.6408489 163.857211 41.731071 155.592597 22.3625097 168.004301 18.3220598 154.1434 33.7478336 130.800524 41.2514677 147.181416"></polygon>
                <polygon id="Path-50" fill="#816B8C" points="54.8374979 170.407376 87.6315314 221.596331 65.7556239 220.254294"></polygon>
                <polygon id="Path-51" fill="url(#linearGradient-5)" points="51.8152179 165.74224 63.5426775 219.638714 47.9854667 211.564259 39.5828073 190.403297 42.6083944 158.518837"></polygon>
                <polygon id="Path-52" fill="#5D4170" points="40.5441219 158.518837 37.523084 189.078775 32.3021267 192.187591 23.048363 170.061228"></polygon>
                <polygon id="Path-5" fill="#707FA8" points="94.1403095 109.499527 101 102.251247 101 142.009521 95.4611237 134.621807 95.4611237 119.733165"></polygon>
            </g>
            <g id="half-face" transform="translate(153.500000, 118.500000) scale(-1, 1) translate(-153.500000, -118.500000) translate(103.000000, 0.000000)">
                <polygon id="Path-27" fill="#4C2CBB" points="1.94993109 10.2331055 47.1606221 10.2331055 53.5950595 25.5510032 54.4922867 27.2332164 70.3007554 34.6612352 72.6927338 35.3824015 101 35.3824015 101 88.1037662 38.5029929 27.2332164"></polygon>
                <polygon id="Path-28" fill="url(#linearGradient-1)" points="0.5 11.1213406 37.8582377 29.1100461 99.4580543 89.2612199 91.6707295 88.9731869 67.8789146 68.8857903 22.8960562 53.3172583 5.63202526 28.4573033"></polygon>
                <polygon id="Path-36" fill="#816BB2" points="90.04779 90.1656709 74.1400993 105.903327 65.478247 98.6910262 78.0587228 90.1656709 63.9432066 78.8513406 55.3995297 78.8513406 41.4101328 61.5838909 66.8861502 70.3323693"></polygon>
                <polygon id="Path-37" fill="#A380D1" points="37.9946463 60.2294024 52.6408489 78.8513406 31.5199194 68.4470999 26.0458919 65.2425877 31.5199194 60.2294024"></polygon>
                <polygon id="Path-38" fill="#772C92" points="31.3971063 70.8975498 47.9854667 78.8513406 26.4186271 77.3836482"></polygon>
                <polygon id="Path-39" fill="#7C63B9" points="52.0612949 81.0172482 56.8780142 89.8590333 58.0210235 91.6705642 62.1706325 98.2282659 34.3352707 126.660762 26.2555193 106.883819 25.8924527 104.797432 25.4323318 79.4153711"></polygon>
                <polygon id="Path-40" fill="url(#linearGradient-2)" points="54.4922867 80.8825581 63.4911952 80.8825581 75.4326784 90.0440489 63.9319644 97.0638158"></polygon>
                <polygon id="Path-43" fill="url(#linearGradient-3)" points="23.7499538 81.7334895 9.1441812 157.228589 16.5101875 153.408748 32.675525 128.722911 23.7499538 107.371119"></polygon>
                <polygon id="Path-44" fill="#B7ABD3" points="63.4911952 100.228401 35.0655791 128.722911 42.3264614 144.924788 64.4409059 138.482407 66.3245218 138.915286 101 158.992953 100.975867 144.924788 93.4644717 135.278653 93.4644717 122.99052 80.4700371 115.034455 78.7142646 113.912712"></polygon>
                <polygon id="Path-46" fill="#7056A8" points="92.1056939 91.4787258 100.975867 91.4787258 100.975867 98.6504855 91.6514711 108.835367 93.6514711 120.610574 80.5458477 112.799055 75.4326784 107.426354"></polygon>
                <polygon id="Path-48" fill="url(#linearGradient-4)" points="65.1274429 140.433771 100.975867 161.296836 100.975867 236.464266 52.6408489 163.857211 41.731071 155.592597 22.3625097 168.004301 18.3220598 154.1434 33.7478336 130.800524 41.2514677 147.181416"></polygon>
                <polygon id="Path-50" fill="#816B8C" points="54.8374979 170.407376 87.6315314 221.596331 65.7556239 220.254294"></polygon>
                <polygon id="Path-51" fill="url(#linearGradient-5)" points="51.8152179 165.74224 63.5426775 219.638714 47.9854667 211.564259 39.5828073 190.403297 42.6083944 158.518837"></polygon>
                <polygon id="Path-52" fill="#5D4170" points="40.5441219 158.518837 37.523084 189.078775 32.3021267 192.187591 23.048363 170.061228"></polygon>
                <polygon id="Path-5" fill="#707FA8" points="94.1403095 109.499527 101 102.251247 101 142.009521 95.4611237 134.621807 95.4611237 119.733165"></polygon>
            </g>
        </g>
    </g>
</svg>