<?xml version="1.0" encoding="UTF-8"?>
<svg width="254px" height="254px" viewBox="0 0 254 254" version="1.1" xmlns="http://www.w3.org/2000/svg" xmlns:xlink="http://www.w3.org/1999/xlink">
    <!-- Generator: Sketch 59.1 (86144) - https://sketch.com -->
    <title>Logo-without-banner@2x</title>
    <desc>Created with Sketch.</desc>
    <defs>
        <linearGradient x1="93.289886%" y1="75.5389125%" x2="3.82336262%" y2="16.3239827%" id="linearGradient-1">
            <stop stop-color="#6347C3" offset="0%"></stop>
            <stop stop-color="#806CC3" offset="100%"></stop>
        </linearGradient>
        <linearGradient x1="50%" y1="-39.7371325%" x2="50%" y2="81.4312414%" id="linearGradient-2">
            <stop stop-color="#CBBEF0" offset="0%"></stop>
            <stop stop-color="#9B89DD" offset="100%"></stop>
        </linearGradient>
        <linearGradient x1="50%" y1="0%" x2="50%" y2="100%" id="linearGradient-3">
            <stop stop-color="#BD2087" offset="0%"></stop>
            <stop stop-color="#880E4F" offset="100%"></stop>
        </linearGradient>
        <linearGradient x1="45.2021459%" y1="100%" x2="50%" y2="13.1587869%" id="linearGradient-4">
            <stop stop-color="#A98FC4" offset="0%"></stop>
            <stop stop-color="#705692" offset="100%"></stop>
        </linearGradient>
        <linearGradient x1="4.54409042%" y1="0%" x2="80.6863761%" y2="80.9314246%" id="linearGradient-5">
            <stop stop-color="#C6B7E0" offset="0%"></stop>
            <stop stop-color="#9480BE" offset="100%"></stop>
        </linearGradient>
        <linearGradient x1="50%" y1="0%" x2="50%" y2="100%" id="linearGradient-6">
            <stop stop-color="#B7A4CB" offset="0%"></stop>
            <stop stop-color="#816B9C" offset="100%"></stop>
        </linearGradient>
        <linearGradient x1="50%" y1="-40.4556246%" x2="50%" y2="77.0440733%" id="linearGradient-7">
            <stop stop-color="#9B76A9" offset="0%"></stop>
            <stop stop-color="#624170" offset="100%"></stop>
        </linearGradient>
    </defs>
    <g id="Logo-without-banner" stroke="none" stroke-width="1" fill="none" fill-rule="evenodd">
        <g id="half-face" transform="translate(18.000000, 0.000000)">
            <polygon id="Path-27" fill="#4C2CBB" points="2.08507483 11.0103033 50.42918 11.0103033 57.3095686 27.4915858 41.1715171 29.3015619"></polygon>
            <polygon id="Path-28" fill="url(#linearGradient-1)" points="0.534653465 11.9659994 39.9837956 31.6323387 67.2415047 58.4707751 70.0163433 73.0180446 24.4829116 57.3666704 6.02236364 30.6186175"></polygon>
            <polygon id="Path-29" fill="#8670D0" points="43.3051172 31.4849873 58.9931395 29.3015619 75.173085 37.2937341 67.891575 55.8594122"></polygon>
            <polygon id="Path-30" fill="url(#linearGradient-2)" points="77.7308441 38.0696725 107.974194 38.0696725 107.974194 64.8037874 70.0163433 57.1111245"></polygon>
            <polygon id="Path-32" fill="#8D78D6" points="107.974194 67.3431017 107.974194 94.7951915 71.9800019 59.8545862"></polygon>
            <polygon id="Path-33" fill="#4C2C92" points="69.6412261 60.5620554 106.351187 96.0405531 98.4492649 96.0405531 72.5833938 74.1176225"></polygon>
            <polygon id="Path-35" fill="#7056A8" points="44.280142 66.2611485 70.0163433 75.3928073 67.0928781 84.84005 59.2391011 84.84005"></polygon>
            <polygon id="Path-36" fill="#816BB2" points="71.9800019 76.768321 94.8364791 96.0405531 83.4082405 96.0405531 69.2075873 85.4417523"></polygon>
            <polygon id="Path-37" fill="#A380D1" points="40.6279386 64.8037874 56.2892246 84.84005 33.7044683 73.6456139 27.8510527 70.197721 33.7044683 64.8037874"></polygon>
            <polygon id="Path-38" fill="#772C92" points="33.5731434 76.2821738 51.3111921 84.84005 28.2496211 83.2608873"></polygon>
            <polygon id="Path-39" fill="#C5ABD3" points="55.6695034 87.1704569 60.8200548 96.68377 27.6869791 112.75673 27.1949686 85.4469183"></polygon>
            <polygon id="Path-40" fill="url(#linearGradient-3)" points="58.2689798 87.0255372 67.891575 87.0255372 81.1238357 97.2067165 68.3628926 104.435751"></polygon>
            <polygon id="Path-41" fill="#A595C8" points="62.0422825 98.6328855 66.4794882 105.688641 36.714943 136.280567 28.0752087 115.001577"></polygon>
            <polygon id="Path-43" fill="url(#linearGradient-4)" points="25.3959902 87.9410963 9.77793633 169.170001 17.6544579 165.060045 34.9401653 138.499334 25.3959902 115.525887"></polygon>
            <polygon id="Path-44" fill="#B7ABD3" points="67.891575 107.840685 37.4958668 138.499334 45.2599785 155.931734 68.9071073 149.000059 84.1697087 122.56431"></polygon>
            <polygon id="Path-45" fill="#816BB2" points="70.0163433 106.396017 82.9932275 98.4264771 95.3280017 98.4264771 79.278522 113.946617"></polygon>
            <polygon id="Path-46" fill="#7056A8" points="98.4892568 98.4264771 107.974194 98.4264771 107.974194 106.142927 98.0035533 117.101345 100.142167 129.770871 86.1282331 121.366072 80.6606858 115.585317"></polygon>
            <polygon id="Path-47" fill="url(#linearGradient-5)" points="86.0471684 123.771249 99.9422074 132.331573 99.9422074 145.552981 107.974194 157.221221 107.974194 171.068367 70.9212709 149.465814"></polygon>
            <polygon id="Path-48" fill="url(#linearGradient-6)" points="69.6412261 151.099627 107.974194 173.547229 107.974194 254.423577 56.2892246 176.302063 44.6233234 167.409756 23.9123866 180.764122 19.5919055 165.850494 36.0867924 140.734741 44.1104803 158.359751"></polygon>
            <polygon id="Path-50" fill="#816B8C" points="58.6381165 183.349708 93.7050039 238.426433 70.3129444 236.982468"></polygon>
            <polygon id="Path-51" fill="url(#linearGradient-7)" points="55.4063716 178.330258 67.9466254 236.320135 51.3111921 227.632431 42.3261702 204.864307 45.5614514 170.558242"></polygon>
            <polygon id="Path-52" fill="#5D4170" points="43.3541105 170.558242 40.1236938 203.439189 34.540888 206.784117 24.6457743 182.977271"></polygon>
            <polygon id="Path-5" fill="#707FA8" points="100.664885 117.815946 108 110.017164 108 152.795055 102.077241 144.846248 102.077241 128.826824"></polygon>
        </g>
        <g id="half-face" transform="translate(182.000000, 127.500000) scale(-1, 1) translate(-182.000000, -127.500000) translate(128.000000, 0.000000)">
            <polygon id="Path-27" fill="#4C2CBB" points="2.08507483 11.0103033 50.42918 11.0103033 57.3095686 27.4915858 41.1715171 29.3015619"></polygon>
            <polygon id="Path-28" fill="url(#linearGradient-1)" points="0.534653465 11.9659994 39.9837956 31.6323387 67.2415047 58.4707751 70.0163433 73.0180446 24.4829116 57.3666704 6.02236364 30.6186175"></polygon>
            <polygon id="Path-29" fill="#8670D0" points="43.3051172 31.4849873 58.9931395 29.3015619 75.173085 37.2937341 67.891575 55.8594122"></polygon>
            <polygon id="Path-30" fill="url(#linearGradient-2)" points="77.7308441 38.0696725 107.974194 38.0696725 107.974194 64.8037874 70.0163433 57.1111245"></polygon>
            <polygon id="Path-32" fill="#8D78D6" points="107.974194 67.3431017 107.974194 94.7951915 71.9800019 59.8545862"></polygon>
            <polygon id="Path-33" fill="#4C2C92" points="69.6412261 60.5620554 106.351187 96.0405531 98.4492649 96.0405531 72.5833938 74.1176225"></polygon>
            <polygon id="Path-35" fill="#7056A8" points="44.280142 66.2611485 70.0163433 75.3928073 67.0928781 84.84005 59.2391011 84.84005"></polygon>
            <polygon id="Path-36" fill="#816BB2" points="71.9800019 76.768321 94.8364791 96.0405531 83.4082405 96.0405531 69.2075873 85.4417523"></polygon>
            <polygon id="Path-37" fill="#A380D1" points="40.6279386 64.8037874 56.2892246 84.84005 33.7044683 73.6456139 27.8510527 70.197721 33.7044683 64.8037874"></polygon>
            <polygon id="Path-38" fill="#772C92" points="33.5731434 76.2821738 51.3111921 84.84005 28.2496211 83.2608873"></polygon>
            <polygon id="Path-39" fill="#C5ABD3" points="55.6695034 87.1704569 60.8200548 96.68377 27.6869791 112.75673 27.1949686 85.4469183"></polygon>
            <polygon id="Path-40" fill="url(#linearGradient-3)" points="58.2689798 87.0255372 67.891575 87.0255372 81.1238357 97.2067165 68.3628926 104.435751"></polygon>
            <polygon id="Path-41" fill="#A595C8" points="62.0422825 98.6328855 66.4794882 105.688641 36.714943 136.280567 28.0752087 115.001577"></polygon>
            <polygon id="Path-43" fill="url(#linearGradient-4)" points="25.3959902 87.9410963 9.77793633 169.170001 17.6544579 165.060045 34.9401653 138.499334 25.3959902 115.525887"></polygon>
            <polygon id="Path-44" fill="#B7ABD3" points="67.891575 107.840685 37.4958668 138.499334 45.2599785 155.931734 68.9071073 149.000059 84.1697087 122.56431"></polygon>
            <polygon id="Path-45" fill="#816BB2" points="70.0163433 106.396017 82.9932275 98.4264771 95.3280017 98.4264771 79.278522 113.946617"></polygon>
            <polygon id="Path-46" fill="#7056A8" points="98.4892568 98.4264771 107.974194 98.4264771 107.974194 106.142927 98.0035533 117.101345 100.142167 129.770871 86.1282331 121.366072 80.6606858 115.585317"></polygon>
            <polygon id="Path-47" fill="url(#linearGradient-5)" points="86.0471684 123.771249 99.9422074 132.331573 99.9422074 145.552981 107.974194 157.221221 107.974194 171.068367 70.9212709 149.465814"></polygon>
            <polygon id="Path-48" fill="url(#linearGradient-6)" points="69.6412261 151.099627 107.974194 173.547229 107.974194 254.423577 56.2892246 176.302063 44.6233234 167.409756 23.9123866 180.764122 19.5919055 165.850494 36.0867924 140.734741 44.1104803 158.359751"></polygon>
            <polygon id="Path-50" fill="#816B8C" points="58.6381165 183.349708 93.7050039 238.426433 70.3129444 236.982468"></polygon>
            <polygon id="Path-51" fill="url(#linearGradient-7)" points="55.4063716 178.330258 67.9466254 236.320135 51.3111921 227.632431 42.3261702 204.864307 45.5614514 170.558242"></polygon>
            <polygon id="Path-52" fill="#5D4170" points="43.3541105 170.558242 40.1236938 203.439189 34.540888 206.784117 24.6457743 182.977271"></polygon>
            <polygon id="Path-5" fill="#707FA8" points="100.664885 117.815946 108 110.017164 108 152.795055 102.077241 144.846248 102.077241 128.826824"></polygon>
        </g>
    </g>
</svg>