<?xml version="1.0" encoding="UTF-8"?>
<svg width="217px" height="254px" viewBox="0 0 217 254" version="1.1" xmlns="http://www.w3.org/2000/svg" xmlns:xlink="http://www.w3.org/1999/xlink">
    <!-- Generator: Sketch 58 (84663) - https://sketch.com -->
    <title>RSE-Community-logo</title>
    <desc>Created with Sketch.</desc>
    <defs>
        <linearGradient x1="93.289886%" y1="75.2245539%" x2="3.82336262%" y2="16.7385009%" id="linearGradient-1">
            <stop stop-color="#6347C3" offset="0%"></stop>
            <stop stop-color="#806CC3" offset="100%"></stop>
        </linearGradient>
        <linearGradient x1="50%" y1="-39.7371325%" x2="50%" y2="81.4312414%" id="linearGradient-2">
            <stop stop-color="#CBBEF0" offset="0%"></stop>
            <stop stop-color="#9B89DD" offset="100%"></stop>
        </linearGradient>
        <linearGradient x1="50%" y1="0%" x2="50%" y2="100%" id="linearGradient-3">
            <stop stop-color="#BD2087" offset="0%"></stop>
            <stop stop-color="#880E4F" offset="100%"></stop>
        </linearGradient>
        <linearGradient x1="45.1423531%" y1="100%" x2="50%" y2="13.1587869%" id="linearGradient-4">
            <stop stop-color="#A98FC4" offset="0%"></stop>
            <stop stop-color="#705692" offset="100%"></stop>
        </linearGradient>
        <linearGradient x1="3.97760051%" y1="0%" x2="81.0688021%" y2="80.9314246%" id="linearGradient-5">
            <stop stop-color="#C6B7E0" offset="0%"></stop>
            <stop stop-color="#9480BE" offset="100%"></stop>
        </linearGradient>
        <linearGradient x1="50%" y1="0%" x2="50%" y2="100%" id="linearGradient-6">
            <stop stop-color="#B7A4CB" offset="0%"></stop>
            <stop stop-color="#816B9C" offset="100%"></stop>
        </linearGradient>
        <linearGradient x1="50%" y1="-40.4556246%" x2="50%" y2="77.0440733%" id="linearGradient-7">
            <stop stop-color="#9B76A9" offset="0%"></stop>
            <stop stop-color="#624170" offset="100%"></stop>
        </linearGradient>
        <linearGradient x1="50%" y1="58.0266262%" x2="50%" y2="58.0266262%" id="linearGradient-8">
            <stop stop-color="#4C2C92" offset="0%"></stop>
            <stop stop-color="#6A5597" offset="100%"></stop>
        </linearGradient>
    </defs>
    <g id="RSE-Community-logo" stroke="none" stroke-width="1" fill="none" fill-rule="evenodd">
        <g id="Logo" transform="translate(0.000000, -10.000000)">
            <g id="half-face" transform="translate(7.000000, 0.000000)">
                <polygon id="Path-27" fill="#4C2CBB" points="1.94993109 10.2331055 47.1606221 10.2331055 53.5950595 25.5510032 38.5029929 27.2332164"></polygon>
                <polygon id="Path-28" fill="url(#linearGradient-1)" points="0.5 11.1213406 37.3922533 29.3994677 62.883259 54.3434263 65.478247 67.8638297 22.8960562 53.3172583 5.63202526 28.4573033"></polygon>
                <polygon id="Path-29" fill="#8670D0" points="40.498304 29.2625176 55.1695101 27.2332164 70.3007554 34.6612352 63.4911952 51.9163949"></polygon>
                <polygon id="Path-30" fill="url(#linearGradient-2)" points="72.6927338 35.3824015 100.975867 35.3824015 100.975867 60.2294024 65.478247 53.0797511"></polygon>
                <polygon id="Path-32" fill="#8D78D6" points="100.975867 62.589471 100.975867 88.1037662 67.3146314 55.6295566"></polygon>
                <polygon id="Path-33" fill="#4C2C92" points="65.1274429 56.2870868 99.4580543 89.2612199 92.068294 89.2612199 67.8789146 68.8857903"></polygon>
                <polygon id="Path-35" fill="#7056A8" points="41.4101328 61.5838909 65.478247 70.070962 62.7442657 78.8513406 55.3995297 78.8513406"></polygon>
                <polygon id="Path-36" fill="#816BB2" points="67.3146314 71.3493807 88.6896702 89.2612199 78.0021508 89.2612199 64.7219104 79.4105698"></polygon>
                <polygon id="Path-37" fill="#A380D1" points="37.9946463 60.2294024 52.6408489 78.8513406 31.5199194 68.4470999 26.0458919 65.2425877 31.5199194 60.2294024"></polygon>
                <polygon id="Path-38" fill="#772C92" points="31.3971063 70.8975498 47.9854667 78.8513406 26.4186271 77.3836482"></polygon>
                <polygon id="Path-39" fill="#C5ABD3" points="52.0612949 81.0172482 56.8780142 89.8590333 25.8924527 104.797432 25.4323318 79.4153711"></polygon>
                <polygon id="Path-40" fill="url(#linearGradient-3)" points="54.4922867 80.8825581 63.4911952 80.8825581 75.8658093 90.3450659 63.9319644 97.0638158"></polygon>
                <polygon id="Path-41" fill="#A595C8" points="58.0210235 91.6705642 62.1706325 98.2282659 34.3352707 126.660762 26.2555193 106.883819"></polygon>
                <polygon id="Path-43" fill="url(#linearGradient-4)" points="23.7499538 81.7334895 9.1441812 157.228589 16.5101875 153.408748 32.675525 128.722911 23.7499538 107.371119"></polygon>
                <polygon id="Path-44" fill="#B7ABD3" points="63.4911952 100.228401 35.0655791 128.722911 42.3264614 144.924788 64.4409059 138.482407 78.7142646 113.912712"></polygon>
                <polygon id="Path-45" fill="#816BB2" points="65.478247 98.8857098 77.6140369 91.4787258 89.1493349 91.4787258 74.1400993 105.903327"></polygon>
                <polygon id="Path-46" fill="#7056A8" points="92.1056939 91.4787258 100.975867 91.4787258 100.975867 98.6504855 91.6514711 108.835367 93.6514711 120.610574 80.5458477 112.799055 75.4326784 107.426354"></polygon>
                <polygon id="Path-47" fill="url(#linearGradient-5)" points="80.4700371 115.034455 93.4644717 122.99052 93.4644717 135.278653 100.975867 146.123253 100.975867 158.992953 66.3245218 138.915286"></polygon>
                <polygon id="Path-48" fill="url(#linearGradient-6)" points="65.1274429 140.433771 100.975867 161.296836 100.975867 236.464266 52.6408489 163.857211 41.731071 155.592597 22.3625097 168.004301 18.3220598 154.1434 33.7478336 130.800524 41.2514677 147.181416"></polygon>
                <polygon id="Path-50" fill="#816B8C" points="54.8374979 170.407376 87.6315314 221.596331 65.7556239 220.254294"></polygon>
                <polygon id="Path-51" fill="url(#linearGradient-7)" points="51.8152179 165.74224 63.5426775 219.638714 47.9854667 211.564259 39.5828073 190.403297 42.6083944 158.518837"></polygon>
                <polygon id="Path-52" fill="#5D4170" points="40.5441219 158.518837 37.523084 189.078775 32.3021267 192.187591 23.048363 170.061228"></polygon>
                <polygon id="Path-5" fill="#707FA8" points="94.1403095 109.499527 101 102.251247 101 142.009521 95.4611237 134.621807 95.4611237 119.733165"></polygon>
            </g>
            <g id="half-face" transform="translate(160.500000, 118.500000) scale(-1, 1) translate(-160.500000, -118.500000) translate(110.000000, 0.000000)">
                <polygon id="Path-27" fill="#4C2CBB" points="1.94993109 10.2331055 47.1606221 10.2331055 53.5950595 25.5510032 38.5029929 27.2332164"></polygon>
                <polygon id="Path-28" fill="url(#linearGradient-1)" points="0.5 11.1213406 37.3922533 29.3994677 62.883259 54.3434263 65.478247 67.8638297 22.8960562 53.3172583 5.63202526 28.4573033"></polygon>
                <polygon id="Path-29" fill="#8670D0" points="40.498304 29.2625176 55.1695101 27.2332164 70.3007554 34.6612352 63.4911952 51.9163949"></polygon>
                <polygon id="Path-30" fill="url(#linearGradient-2)" points="72.6927338 35.3824015 100.975867 35.3824015 100.975867 60.2294024 65.478247 53.0797511"></polygon>
                <polygon id="Path-32" fill="#8D78D6" points="100.975867 62.589471 100.975867 88.1037662 67.3146314 55.6295566"></polygon>
                <polygon id="Path-33" fill="#4C2C92" points="65.1274429 56.2870868 99.4580543 89.2612199 92.068294 89.2612199 67.8789146 68.8857903"></polygon>
                <polygon id="Path-35" fill="#7056A8" points="41.4101328 61.5838909 65.478247 70.070962 62.7442657 78.8513406 55.3995297 78.8513406"></polygon>
                <polygon id="Path-36" fill="#816BB2" points="67.3146314 71.3493807 88.6896702 89.2612199 78.0021508 89.2612199 64.7219104 79.4105698"></polygon>
                <polygon id="Path-37" fill="#A380D1" points="37.9946463 60.2294024 52.6408489 78.8513406 31.5199194 68.4470999 26.0458919 65.2425877 31.5199194 60.2294024"></polygon>
                <polygon id="Path-38" fill="#772C92" points="31.3971063 70.8975498 47.9854667 78.8513406 26.4186271 77.3836482"></polygon>
                <polygon id="Path-39" fill="#C5ABD3" points="52.0612949 81.0172482 56.8780142 89.8590333 25.8924527 104.797432 25.4323318 79.4153711"></polygon>
                <polygon id="Path-40" fill="url(#linearGradient-3)" points="54.4922867 80.8825581 63.4911952 80.8825581 75.8658093 90.3450659 63.9319644 97.0638158"></polygon>
                <polygon id="Path-41" fill="#A595C8" points="58.0210235 91.6705642 62.1706325 98.2282659 34.3352707 126.660762 26.2555193 106.883819"></polygon>
                <polygon id="Path-43" fill="url(#linearGradient-4)" points="23.7499538 81.7334895 9.1441812 157.228589 16.5101875 153.408748 32.675525 128.722911 23.7499538 107.371119"></polygon>
                <polygon id="Path-44" fill="#B7ABD3" points="63.4911952 100.228401 35.0655791 128.722911 42.3264614 144.924788 64.4409059 138.482407 78.7142646 113.912712"></polygon>
                <polygon id="Path-45" fill="#816BB2" points="65.478247 98.8857098 77.6140369 91.4787258 89.1493349 91.4787258 74.1400993 105.903327"></polygon>
                <polygon id="Path-46" fill="#7056A8" points="92.1056939 91.4787258 100.975867 91.4787258 100.975867 98.6504855 91.6514711 108.835367 93.6514711 120.610574 80.5458477 112.799055 75.4326784 107.426354"></polygon>
                <polygon id="Path-47" fill="url(#linearGradient-5)" points="80.4700371 115.034455 93.4644717 122.99052 93.4644717 135.278653 100.975867 146.123253 100.975867 158.992953 66.3245218 138.915286"></polygon>
                <polygon id="Path-48" fill="url(#linearGradient-6)" points="65.1274429 140.433771 100.975867 161.296836 100.975867 236.464266 52.6408489 163.857211 41.731071 155.592597 22.3625097 168.004301 18.3220598 154.1434 33.7478336 130.800524 41.2514677 147.181416"></polygon>
                <polygon id="Path-50" fill="#816B8C" points="54.8374979 170.407376 87.6315314 221.596331 65.7556239 220.254294"></polygon>
                <polygon id="Path-51" fill="url(#linearGradient-7)" points="51.8152179 165.74224 63.5426775 219.638714 47.9854667 211.564259 39.5828073 190.403297 42.6083944 158.518837"></polygon>
                <polygon id="Path-52" fill="#5D4170" points="40.5441219 158.518837 37.523084 189.078775 32.3021267 192.187591 23.048363 170.061228"></polygon>
                <polygon id="Path-5" fill="#707FA8" points="94.1403095 109.499527 101 102.251247 101 142.009521 95.4611237 134.621807 95.4611237 119.733165"></polygon>
            </g>
            <g id="banner" stroke-width="1" transform="translate(0.000000, 214.000000)">
                <g id="band" transform="translate(169.000000, 0.000000)">
                    <polygon id="Path-3" fill="#772C92" points="0.0686317529 0.894466028 25 15.6582456 29.5536185 39.3973949 9.76463248 28.7301001 9.76463248 21.4128001 1.42108547e-14 14.6770258"></polygon>
                    <polygon id="Path-2" fill="#816B9C" points="27.5309262 17.2380346 47.5241463 29.5952183 40.9374436 35.6836739 38.6683078 44.1340009 31.7948403 40.3480133"></polygon>
                </g>
                <g id="band" transform="translate(24.000000, 22.500000) scale(-1, 1) translate(-24.000000, -22.500000) ">
                    <polygon id="Path-3" fill="#772C92" points="0.0686317529 0.894466028 25 15.6582456 29.5536185 39.3973949 9.76463248 28.7301001 9.76463248 21.4128001 1.42108547e-14 14.6770258"></polygon>
                    <polygon id="Path-2" fill="#816B9C" points="27.5309262 17.2380346 47.5241463 29.5952183 40.9374436 35.6836739 38.6683078 44.1340009 31.7948403 40.3480133"></polygon>
                </g>
                <g id="Group-2" transform="translate(40.500000, 18.000000)">
                    <g id="front-banner">
                        <polygon id="Path-4" fill="url(#linearGradient-8)" points="0.940745387 4.60321602 8.26075231 0.0500545845 68.4200522 5.08094021 128.171054 0.0500545845 134.968684 4.60321602 134.968684 24.5311213 68.4200522 31.9493033 0.940745387 24.5311213"></polygon>
                        <g id="Group" stroke-width="1" transform="translate(1.000000, 10.000000)" fill="#FFFFFF">
                            <path d="M14.1942941,4.25522712 L13.8896928,4.22600247 C13.7403777,4.21167659 13.5530204,4.20123515 13.3276152,4.19467784 C13.10221,4.18812053 12.8837613,4.20332666 12.6722627,4.24029667 C12.460764,4.27726669 12.2761227,4.34845699 12.1183332,4.45386969 C11.9605438,4.5592824 11.8716222,4.71650695 11.851566,4.92554806 C11.8383862,5.06291794 11.8554384,5.18359696 11.902723,5.28758875 C11.9500077,5.39158054 12.0184213,5.47951557 12.1079661,5.55139647 C12.1975109,5.62327736 12.2992253,5.67824244 12.4131124,5.71629334 C12.5269996,5.75434424 12.6436674,5.77909967 12.7631195,5.79056038 C12.9781332,5.81118964 13.1682124,5.79326164 13.3333628,5.73677583 C13.4985132,5.68029003 13.6407133,5.59598652 13.7599674,5.48386278 C13.8792215,5.37173905 13.9721099,5.23599132 14.0386355,5.07661553 C14.1051611,4.91723973 14.1473053,4.74497907 14.1650694,4.55982837 L14.1942941,4.25522712 Z M14.2407097,3.77144867 L14.2510243,3.66394235 C14.3203615,2.94125734 13.9966788,2.54553866 13.2799664,2.47677444 C12.7902129,2.42978556 12.34742,2.55305828 11.9515742,2.84659632 L11.6336186,2.39114795 C12.0667768,2.02283125 12.6775386,1.87649541 13.4659222,1.95213606 C13.6689907,1.97161925 13.8617254,2.02024844 14.0441321,2.09802508 C14.2265387,2.17580172 14.3805511,2.28249753 14.5061737,2.41811571 C14.6317964,2.55373389 14.7275325,2.71812711 14.7933848,2.91130031 C14.8592372,3.1044735 14.8798428,3.3294677 14.8552023,3.58628964 L14.6755566,5.45869143 C14.6600847,5.61995172 14.6513623,5.78939151 14.6493893,5.9670159 L14.6498059,6.2100417 C14.6510702,6.28324689 14.6534599,6.34864885 14.6569749,6.40624814 L14.0836079,6.35123704 C14.0754317,6.24798367 14.0725945,6.13620286 14.0750963,6.01589124 C14.0775981,5.89557962 14.0842927,5.77868583 14.0951804,5.66520637 L14.0772627,5.66348727 C13.8771245,5.92758161 13.6532263,6.10952779 13.4055612,6.20933126 C13.1578962,6.30913474 12.8638489,6.34270448 12.5234105,6.31004147 C12.3382598,6.29227738 12.1615197,6.2497034 11.993185,6.18231825 C11.8248503,6.1149331 11.6785074,6.02253499 11.554152,5.90512114 C11.4297965,5.78770729 11.3346114,5.64898376 11.2685936,5.4889464 C11.2025759,5.32890904 11.1793089,5.14735883 11.1987921,4.94429032 C11.2314551,4.60385193 11.3451927,4.34503408 11.5400081,4.16782901 C11.7348235,3.99062394 11.9697024,3.86699246 12.2446518,3.79693087 C12.5196013,3.72686929 12.8090259,3.69436291 13.1129345,3.69941077 C13.4168431,3.70445864 13.694218,3.71901609 13.9450673,3.74308357 L14.2407097,3.77144867 Z M18.8483916,6.80838922 C18.847334,6.69376369 18.8506126,6.58106277 18.8582275,6.47028309 L18.8859811,6.13389606 L18.8859811,6.13389606 L18.8680634,6.13217697 C18.7914771,6.23935304 18.6978339,6.33584966 18.5871311,6.42166972 C18.4764283,6.50748977 18.3550714,6.57872433 18.2230568,6.63537553 C18.0910423,6.69202673 17.9529966,6.73302951 17.8089157,6.75838511 C17.6648348,6.7837407 17.5241115,6.7898285 17.3867416,6.77664869 C16.8492073,6.72507553 16.4656445,6.54512206 16.2360418,6.23678289 C16.006439,5.92844371 15.9168525,5.51148584 15.9672796,4.98589674 L16.2225655,2.32511526 L16.8138503,2.38184546 L16.5912272,4.70219025 C16.5688788,4.93512178 16.567027,5.14289259 16.5856715,5.3255089 C16.6043161,5.50812521 16.6510654,5.6648047 16.725921,5.79555208 C16.8007765,5.92629946 16.9083586,6.03004744 17.0486705,6.10679914 C17.1889824,6.18355084 17.3696288,6.2325271 17.5906152,6.2537294 L17.7036592,6.25155584 C17.7419559,6.24944373 17.7890366,6.24624556 17.8449014,6.24196132 C17.9845634,6.23125072 18.1357002,6.17944896 18.2983162,6.0865545 C18.4609322,5.99366003 18.6122786,5.84543852 18.75236,5.6418855 C18.8924413,5.43833248 18.9808178,5.14543706 19.017492,4.76319045 L19.2237837,2.613064 L19.8150684,2.6697942 L19.5013332,5.93977818 C19.4904456,6.05325764 19.4811723,6.19702774 19.4735132,6.37109279 C19.4658541,6.54515784 19.4605478,6.71040476 19.4575941,6.86683852 L18.8483916,6.80838922 Z M23.1844502,3.53554573 L21.975004,3.41950668 L21.7377687,5.8921521 C21.7228697,6.04743979 21.7256242,6.17578827 21.7460322,6.2772014 C21.7664401,6.37861453 21.8009416,6.45877527 21.8495377,6.51768602 C21.8981338,6.57659676 21.9587569,6.62008501 22.0314088,6.64815206 C22.1040608,6.67621911 22.18518,6.69455013 22.2747691,6.70314566 C22.3763033,6.71288725 22.4822549,6.70798394 22.5926269,6.68843555 C22.702999,6.66888717 22.8052701,6.63952077 22.8994435,6.60033547 L22.8738876,7.14940459 C22.6431597,7.22973654 22.3725121,7.25500323 22.0619367,7.2252054 C21.9484572,7.21431773 21.8319326,7.18806917 21.7123595,7.14645893 C21.5927863,7.10484869 21.4862454,7.03736556 21.3927336,6.94400752 C21.2992219,6.85064947 21.2264942,6.72914934 21.1745484,6.57950347 C21.1226026,6.42985761 21.1078041,6.23857178 21.1301525,6.00564025 L21.3837193,3.36277648 L20.4967921,3.27768118 L20.548365,2.74014957 L21.4352922,2.82524487 L21.5487526,1.64267532 L22.1400374,1.69940552 L22.026577,2.88197507 L23.2360231,2.99801411 L23.1844502,3.53554573 Z M27.2979762,5.50340488 C27.3203246,5.27047335 27.3039119,5.04889518 27.2487375,4.83866373 C27.1935632,4.62843227 27.1044553,4.4420719 26.9814113,4.279577 C26.8583674,4.11708211 26.7039474,3.98322348 26.5181468,3.87799708 C26.3323462,3.77277069 26.1170107,3.70841124 25.872134,3.6849168 C25.6272573,3.66142235 25.4036129,3.68366435 25.2011943,3.75164346 C24.9987757,3.81962256 24.8232143,3.92182148 24.6745048,4.05824327 C24.5257954,4.19466506 24.4043721,4.36082625 24.3102314,4.55673183 C24.2160906,4.7526374 24.157847,4.96705273 24.1354986,5.19998427 C24.1131502,5.4329158 24.129563,5.65449396 24.1847373,5.86472542 C24.2399116,6.07495687 24.3275263,6.26117399 24.447584,6.42338237 C24.5676417,6.58559074 24.7205686,6.71930612 24.9063692,6.82453251 C25.0921698,6.9297589 25.3075052,6.99411836 25.552382,7.0176128 C25.7972587,7.04110724 26.020903,7.01886524 26.2233216,6.95088614 C26.4257403,6.88290703 26.6027948,6.78085137 26.7544906,6.6447161 C26.9061863,6.50858083 27.0291027,6.34256289 27.1232434,6.14665732 C27.2173842,5.95075174 27.2756279,5.73633641 27.2979762,5.50340488 Z M27.9430142,5.56529237 C27.9126433,5.88184035 27.8293193,6.16919302 27.6930395,6.42735902 C27.5567598,6.68552502 27.3806195,6.90369762 27.1646134,7.08188337 C26.9486074,7.26006912 26.6994308,7.39137006 26.4170762,7.47579012 C26.1347216,7.56021018 25.8293022,7.58666135 25.5008091,7.55514441 C25.1782885,7.52420051 24.8864564,7.44044669 24.6253041,7.30388042 C24.3641518,7.16731416 24.1444861,6.99103064 23.9663003,6.77502457 C23.7881146,6.5590185 23.6566704,6.31133502 23.5719638,6.03196672 C23.4872572,5.75259842 23.4600898,5.45464475 23.4904606,5.13809677 C23.5208315,4.8215488 23.6041556,4.53419612 23.7404353,4.27603012 C23.8767151,4.01786412 24.0528553,3.79969152 24.2688614,3.62150577 C24.4848675,3.44332002 24.7340441,3.31201909 25.0163987,3.22759902 C25.2987533,3.14317896 25.6011863,3.11644128 25.9237069,3.14738518 C26.2522001,3.17890212 26.5470184,3.26294246 26.8081707,3.39950872 C27.069323,3.53607498 27.2889887,3.71235851 27.4671745,3.92836458 C27.6453602,4.14437065 27.7768044,4.39205412 27.861511,4.67142242 C27.9462176,4.95079072 27.973385,5.24874439 27.9430142,5.56529237 Z M29.6479071,3.61319562 C29.6489646,3.72782115 29.645686,3.84052207 29.6380712,3.95130175 L29.6103175,4.28768878 L29.6103175,4.28768878 L29.6282352,4.28940788 C29.7048215,4.1822318 29.7984647,4.08573518 29.9091675,3.99991513 C30.0198703,3.91409507 30.1412272,3.84286051 30.2732418,3.78620931 C30.4052564,3.72955812 30.543302,3.68855533 30.6873829,3.66319974 C30.8314639,3.63784414 30.9721871,3.63175634 31.109557,3.64493615 C31.6470913,3.69650932 32.0306541,3.87646279 32.2602569,4.18480196 C32.4898596,4.49314113 32.5794461,4.91009901 32.529019,5.4356881 L32.2737331,8.09646959 L31.6824484,8.03973939 L31.9050714,5.71939459 C31.9497682,5.25353153 31.9033776,4.88893798 31.7658982,4.62560299 C31.6284189,4.362268 31.3416835,4.20968701 30.9056835,4.16785544 L30.8434965,4.1676754 C30.7992273,4.16921446 30.7351944,4.17319716 30.6513972,4.17962352 C30.5117352,4.19033413 30.3605984,4.24213588 30.1979824,4.33503035 C30.0353664,4.42792481 29.88402,4.57614633 29.7439387,4.77969934 C29.6038573,4.98325236 29.5154809,5.27614778 29.4788066,5.6583944 L29.272515,7.80852085 L28.6812302,7.75179065 L28.9949654,4.48180667 C29.0058531,4.36832721 29.0151263,4.2245571 29.0227854,4.05049206 C29.0304445,3.87642701 29.0357509,3.71118008 29.0387046,3.55474632 L29.6479071,3.61319562 Z M37.3202809,6.46498442 C37.3426293,6.23205289 37.3262165,6.01047472 37.2710422,5.80024327 C37.2158678,5.59001182 37.12676,5.40365144 37.003716,5.24115655 C36.880672,5.07866165 36.726252,4.94480302 36.5404514,4.83957663 C36.3546508,4.73435024 36.1393154,4.66999078 35.8944387,4.64649634 C35.6495619,4.6230019 35.4259176,4.6452439 35.223499,4.713223 C35.0210804,4.78120211 34.845519,4.88340102 34.6968095,5.01982281 C34.5481001,5.1562446 34.4266768,5.3224058 34.332536,5.51831137 C34.2383953,5.71421694 34.1801516,5.92863228 34.1578032,6.16156381 C34.1354549,6.39449534 34.1518676,6.61607351 34.207042,6.82630496 C34.2622163,7.03653641 34.349831,7.22275354 34.4698887,7.38496191 C34.5899464,7.54717029 34.7428733,7.68088566 34.9286739,7.78611206 C35.1144745,7.89133845 35.3298099,7.9556979 35.5746866,7.97919234 C35.8195634,8.00268678 36.0432077,7.98044479 36.2456263,7.91246568 C36.4480449,7.84448658 36.6250995,7.74243092 36.7767952,7.60629564 C36.928491,7.47016037 37.0514074,7.30414244 37.1455481,7.10823686 C37.2396889,6.91233129 37.2979325,6.69791595 37.3202809,6.46498442 Z M37.9653188,6.52687191 C37.934948,6.84341989 37.8516239,7.13077257 37.7153442,7.38893857 C37.5790644,7.64710457 37.4029242,7.86527717 37.1869181,8.04346292 C36.970912,8.22164867 36.7217354,8.3529496 36.4393808,8.43736966 C36.1570262,8.52178972 35.8516069,8.54824089 35.5231137,8.51672396 C35.2005931,8.48578006 34.9087611,8.40202623 34.6476088,8.26545997 C34.3864565,8.1288937 34.1667907,7.95261018 33.988605,7.73660411 C33.8104192,7.52059804 33.6789751,7.27291457 33.5942685,6.99354627 C33.5095619,6.71417797 33.4823944,6.4162243 33.5127653,6.09967632 C33.5431362,5.78312834 33.6264602,5.49577566 33.76274,5.23760966 C33.8990197,4.97944366 34.07516,4.76127106 34.2911661,4.58308531 C34.5071721,4.40489956 34.7563487,4.27359863 35.0387033,4.18917857 C35.3210579,4.10475851 35.623491,4.07802083 35.9460116,4.10896473 C36.2745048,4.14048166 36.5693231,4.224522 36.8304754,4.36108826 C37.0916277,4.49765453 37.3112934,4.67393805 37.4894792,4.88994412 C37.6676649,5.10595019 37.7991091,5.35363366 37.8838157,5.63300196 C37.9685223,5.91237027 37.9956897,6.21032394 37.9653188,6.52687191 Z M39.0164105,5.45234507 C39.0313094,5.29705739 39.0417287,5.14134226 39.0476687,4.98519502 L39.0610092,4.51632587 L39.0610092,4.51632587 L39.6970883,4.57735381 L39.6360604,5.21343288 L39.6539781,5.21515198 C39.820815,4.98402809 40.0371649,4.8179333 40.3030343,4.71686262 C40.5689037,4.61579195 40.8272592,4.57729093 41.0781085,4.6013584 C41.191588,4.61224607 41.3113853,4.63579489 41.4375042,4.67200556 C41.563623,4.70821623 41.6833982,4.76340725 41.7968334,4.83758029 C41.9102686,4.91175333 42.0138011,5.01059216 42.107434,5.13409974 C42.2010669,5.25760732 42.2751223,5.41238605 42.3296025,5.59844057 C42.4748411,5.34113412 42.6848109,5.14730348 42.9595181,5.01694282 C43.2342252,4.88658216 43.5119308,4.83486894 43.7926432,4.86180159 C44.3301775,4.91337476 44.7137402,5.09332823 44.943343,5.4016674 C45.1729458,5.71000657 45.2625323,6.12696445 45.2121052,6.65255355 L44.9568193,9.31333503 L44.3655345,9.25660483 L44.6001913,6.81083599 C44.6408768,6.38678115 44.5974503,6.05411632 44.4699105,5.81283151 C44.3423708,5.57154671 44.0755364,5.43142321 43.6693994,5.39245682 C43.448413,5.37125452 43.2591107,5.39679142 43.1014866,5.46906829 C42.9438625,5.54134515 42.8118883,5.64471226 42.7055601,5.77917269 C42.5992319,5.91363313 42.5164262,6.06993758 42.4571404,6.24809073 C42.3978546,6.42624389 42.3587572,6.61386561 42.339847,6.81096152 L42.1258195,9.04171771 L41.5345347,8.98498751 L41.7691914,6.53921867 C41.8098769,6.11516383 41.7664504,5.782499 41.6389107,5.5412142 C41.511371,5.29992939 41.2445366,5.15980589 40.8383995,5.1208395 L40.7490714,5.12131029 C40.7074371,5.12334326 40.6539442,5.12725228 40.5885927,5.13303736 C40.4578896,5.14460751 40.3186979,5.19755532 40.1710133,5.29188237 C40.0233288,5.38620943 39.8839275,5.53557699 39.752805,5.73998956 C39.6216826,5.94440213 39.5377855,6.23772733 39.5011113,6.61997394 L39.2948196,8.77010039 L38.7035349,8.71337019 L39.0164105,5.45234507 Z M47.6178089,3.7098599 C47.6057752,3.83528457 47.5510966,3.93401273 47.4537716,4.00604735 C47.3564465,4.07808197 47.2540321,4.1089415 47.1465253,4.09862686 C47.0390184,4.08831223 46.9443399,4.03854282 46.8624868,3.94931715 C46.7806337,3.86009148 46.7457246,3.75276792 46.7577583,3.62734325 C46.7697921,3.50191857 46.8244706,3.40319041 46.9217956,3.33115579 C47.0191207,3.25912118 47.1215351,3.22826165 47.2290419,3.23857628 C47.3365488,3.24889091 47.4312273,3.29866032 47.5130804,3.38788599 C47.5949335,3.47711167 47.6298426,3.58443523 47.6178089,3.7098599 Z M46.9264386,9.50230809 L46.3351538,9.44557789 L46.7374225,5.25283131 L47.3287073,5.30956151 L46.9264386,9.50230809 Z M51.1031174,7.79640559 L50.7985161,7.76718094 L50.5460111,7.74860541 C50.4523317,7.74338465 50.3491411,7.73913496 50.2364385,7.73585631 C50.0110333,7.729299 49.7925846,7.74450512 49.581086,7.78147514 C49.3695873,7.81844516 49.184946,7.88963545 49.0271565,7.99504816 C48.869367,8.10046086 48.7804455,8.25768541 48.7603893,8.46672653 C48.7472095,8.60409641 48.7642616,8.72477543 48.8115463,8.82876722 C48.8588309,8.93275901 48.9272446,9.02069403 49.0167894,9.09257493 C49.1063342,9.16445583 49.2080486,9.2194209 49.3219357,9.25747181 C49.4358228,9.29552271 49.5524907,9.32027814 49.6719427,9.33173884 C49.8869565,9.35236811 50.0770357,9.33444011 50.2421861,9.2779543 C50.4073365,9.22146849 50.5495366,9.13716498 50.6687907,9.02504125 C50.7880448,8.91291751 50.8809332,8.77716979 50.9474588,8.61779399 C51.0139844,8.4584182 51.0561286,8.28615754 51.0738927,8.10100683 L51.1031174,7.79640559 Z M51.149533,7.31262713 L51.1598476,7.20512081 C51.2291848,6.48243581 50.9055021,6.08671713 50.1887897,6.01795291 C49.6990362,5.97096402 49.2562433,6.09423675 48.8603975,6.38777479 L48.5424419,5.93232642 C48.9756001,5.56400971 49.5863619,5.41767388 50.3747455,5.49331452 C50.577814,5.51279772 50.7705487,5.56142691 50.9529554,5.63920355 C51.135362,5.71698019 51.2893744,5.823676 51.414997,5.95929418 C51.5406197,6.09491236 51.6363557,6.25930558 51.7022081,6.45247877 C51.7680605,6.64565197 51.7886661,6.87064616 51.7640256,7.12746811 L51.5843799,8.99986989 C51.568908,9.16113018 51.5601856,9.33056998 51.5582126,9.50819437 L51.5586292,9.75122017 C51.5598935,9.82442536 51.5622831,9.88982732 51.5657982,9.9474266 L50.9924312,9.8924155 C50.9842549,9.78916214 50.9814178,9.67738132 50.9839196,9.5570697 C50.9864214,9.43675809 50.993116,9.3198643 51.0040037,9.20638483 L50.986086,9.20466574 C50.7859478,9.46876007 50.5620496,9.65070625 50.3143845,9.75050973 C50.0667195,9.85031321 49.7726721,9.88388294 49.4322338,9.85121994 C49.2470831,9.83345585 49.070343,9.79088187 48.9020083,9.72349672 C48.7336736,9.65611157 48.5873307,9.56371345 48.4629753,9.4462996 C48.3386198,9.32888575 48.2434346,9.19016223 48.1774169,9.03012487 C48.1113991,8.87008751 48.0881322,8.6885373 48.1076154,8.48546878 C48.1402784,8.14503039 48.2540159,7.88621254 48.4488314,7.70900747 C48.6436468,7.5318024 48.8785257,7.40817093 49.1534751,7.33810934 C49.4284245,7.26804775 49.7178492,7.23554138 50.0217578,7.24058924 C50.3256664,7.2456371 50.6030412,7.26019456 50.8538906,7.28426203 L51.149533,7.31262713 Z M53.0419957,6.79801518 C53.0568946,6.6427275 53.0673139,6.48701237 53.073254,6.33086513 C53.079194,6.17471789 53.0836408,6.01842974 53.0865945,5.86199598 L53.7226735,5.92302392 L53.6616456,6.559103 L53.6795633,6.56082209 C53.8464002,6.3296982 54.0627502,6.16360341 54.3286195,6.06253273 C54.5944889,5.96146206 54.8528444,5.92296104 55.1036937,5.94702852 C55.2171732,5.95791618 55.3369706,5.981465 55.4630894,6.01767567 C55.5892082,6.05388634 55.7089834,6.10907737 55.8224186,6.18325041 C55.9358538,6.25742344 56.0393863,6.35626227 56.1330192,6.47976985 C56.2266521,6.60327743 56.3007075,6.75805616 56.3551877,6.94411068 C56.5004264,6.68680423 56.7103961,6.49297359 56.9851033,6.36261293 C57.2598104,6.23225228 57.537516,6.18053905 57.8182284,6.2074717 C58.3557627,6.25904487 58.7393255,6.43899834 58.9689282,6.74733751 C59.198531,7.05567668 59.2881175,7.47263456 59.2376904,7.99822366 L58.9824045,10.6590051 L58.3911197,10.6022749 L58.6257765,8.1565061 C58.666462,7.73245127 58.6230355,7.39978643 58.4954958,7.15850163 C58.367956,6.91721682 58.1011216,6.77709332 57.6949846,6.73812693 C57.4739983,6.71692463 57.2846959,6.74246153 57.1270718,6.8147384 C56.9694477,6.88701527 56.8374735,6.99038237 56.7311454,7.1248428 C56.6248172,7.25930324 56.5420114,7.41560769 56.4827256,7.59376084 C56.4234398,7.771914 56.3843424,7.95953572 56.3654323,8.15663163 L56.1514047,10.3873878 L55.5601199,10.3306576 L55.7947766,7.88488878 C55.8354621,7.46083395 55.7920357,7.12816911 55.6644959,6.88688431 C55.5369562,6.6455995 55.2701218,6.505476 54.8639848,6.46650961 L54.7746566,6.4669804 C54.7330223,6.46901337 54.6795295,6.47292239 54.6141779,6.47870747 C54.4834748,6.49027763 54.3442831,6.54322544 54.1965986,6.63755249 C54.0489141,6.73187954 53.9095127,6.88124711 53.7783903,7.08565968 C53.6472678,7.29007225 53.5633707,7.58339744 53.5266965,7.96564405 L53.3204049,10.1157705 L52.7291201,10.0590403 L53.0419957,6.79801518 Z M75.7056391,3.94963493 L76.2969239,3.89290473 L76.60894,7.14497099 L76.6268577,7.14325189 C76.6816687,7.02346904 76.7552559,6.91092768 76.8476216,6.80562442 C76.9399873,6.70032117 77.045586,6.6073116 77.1644207,6.52659293 C77.2832555,6.44587425 77.4109867,6.37937178 77.5476181,6.32708353 C77.6842496,6.27479529 77.8212482,6.24206175 77.9586181,6.22888194 C78.4961524,6.17730877 78.9069339,6.28104971 79.190975,6.54010785 C79.4750161,6.799166 79.6422477,7.19148373 79.6926748,7.71707283 L79.9479607,10.3778543 L79.356676,10.4345845 L79.1340529,8.11423971 C79.0893562,7.64837665 78.9744889,7.29925482 78.7894476,7.06686373 C78.6275365,6.86352152 78.3695589,6.76515628 78.0155083,6.77176607 L77.8578904,6.78102588 C77.8280273,6.78389105 77.7455582,6.80385845 77.6104805,6.84092867 C77.4754027,6.8779989 77.3368726,6.95759244 77.1948858,7.0797117 C77.0528991,7.20183096 76.9324961,7.37612518 76.8336733,7.60259961 C76.7348505,7.82907403 76.7037767,8.13342999 76.7404509,8.5156766 L76.9467426,10.6658031 L76.3554578,10.7225333 L75.7056391,3.94963493 Z M84.228966,9.96711774 C84.2061331,9.85478435 84.1879232,9.743516 84.1743357,9.63330935 C84.1607483,9.52310271 84.1485109,9.41126133 84.1376232,9.29778187 L84.1197055,9.29950097 C84.0648946,9.41928382 83.9913073,9.53182518 83.8989416,9.63712843 C83.8065759,9.74243168 83.7009773,9.83544125 83.5821425,9.91615993 C83.4633078,9.99687861 83.3355766,10.0633811 83.1989451,10.1156693 C83.0623137,10.1679576 82.9253151,10.2006911 82.7879452,10.2138709 C82.2504109,10.2654441 81.8396293,10.1617031 81.5555882,9.902645 C81.2715471,9.64358686 81.1043155,9.25126912 81.0538884,8.72568003 L80.7986025,6.06489854 L81.3898873,6.00816834 L81.6125103,8.32851314 C81.6348587,8.56144467 81.6725457,8.76577732 81.7255724,8.94151721 C81.778599,9.11725709 81.8542862,9.26218954 81.9526362,9.3763189 C82.0509862,9.49044826 82.1763321,9.57184821 82.3286777,9.62052118 C82.4810234,9.66919415 82.6676866,9.68292928 82.8886729,9.66172698 L82.9497596,9.65007966 C82.9929286,9.64015143 83.0550362,9.62406631 83.1360828,9.60182418 C83.2711605,9.56475396 83.4096907,9.48516041 83.5516774,9.36304116 C83.6936642,9.2409219 83.8140672,9.06662767 83.91289,8.84015325 C84.0117128,8.61367882 84.0427866,8.30932287 84.0061123,7.92707626 L83.7998207,5.7769498 L84.3911055,5.7202196 L84.7048407,8.99020358 L84.7364086,9.25640524 L84.7364086,9.25640524 L84.7595373,9.41893955 C84.7851142,9.5912855 84.8113243,9.75452683 84.8381685,9.90866844 L84.228966,9.96711774 Z M86.3493478,3.90489893 C86.3613815,4.0303236 86.3264724,4.13764716 86.2446193,4.22687283 C86.1627662,4.3160985 86.0680877,4.36586791 85.9605808,4.37618254 C85.853074,4.38649718 85.7506596,4.35563765 85.6533345,4.28360303 C85.5560095,4.21156841 85.5013309,4.11284025 85.4892972,3.98741558 C85.4772635,3.86199091 85.5121726,3.75466735 85.5940257,3.66544167 C85.6758788,3.576216 85.7705573,3.5264466 85.8780642,3.51613196 C85.985571,3.50581733 86.0879854,3.53667686 86.1853105,3.60871148 C86.2826355,3.68074609 86.3373141,3.77947426 86.3493478,3.90489893 Z M86.7719523,9.72313357 L86.1806675,9.77986377 L85.7783988,5.58711719 L86.3696836,5.53038699 L86.7719523,9.72313357 Z M91.088793,9.30895881 C91.0659601,9.19662542 91.0477502,9.08535707 91.0341627,8.97515042 C91.0205753,8.86494378 91.0083379,8.7531024 90.9974502,8.63962294 L90.9795325,8.64134204 C90.9247216,8.76112489 90.8511343,8.87366625 90.7587686,8.9789695 C90.6664029,9.08427275 90.5608043,9.17728232 90.4419695,9.258001 C90.3231348,9.33871968 90.1954036,9.40522214 90.0587721,9.45751039 C89.9221407,9.50979864 89.7851421,9.54253218 89.6477722,9.55571199 C89.1102379,9.60728515 88.6994563,9.50354422 88.4154152,9.24448607 C88.1313741,8.98542793 87.9641425,8.59311019 87.9137154,8.0675211 L87.6584295,5.40673961 L88.2497143,5.35000941 L88.4723374,7.67035421 C88.4946857,7.90328574 88.5323727,8.10761838 88.5853994,8.28335827 C88.638426,8.45909816 88.7141132,8.60403061 88.8124632,8.71815997 C88.9108132,8.83228933 89.0361591,8.91368927 89.1885047,8.96236225 C89.3408504,9.01103522 89.5275136,9.02477035 89.7484999,9.00356805 L89.8590685,8.9799402 C89.896265,8.97058498 89.9418787,8.95849334 89.9959098,8.94366525 C90.1309875,8.90659503 90.2695177,8.82700148 90.4115045,8.70488222 C90.5534912,8.58276297 90.6738942,8.40846874 90.772717,8.18199432 C90.8715398,7.95551989 90.9026136,7.65116394 90.8659393,7.26891733 L90.6596477,5.11879087 L91.2509325,5.06206067 L91.5646677,8.33204465 L91.5962356,8.59824631 L91.5962356,8.59824631 L91.6193643,8.76078062 C91.6449412,8.93312656 91.6711513,9.0963679 91.6979955,9.25050951 L91.088793,9.30895881 Z M94.8210502,5.72311695 C94.7148431,5.55850698 94.5822132,5.4325997 94.4231565,5.34539132 C94.2640998,5.25818294 94.0770674,5.22489389 93.8620537,5.24552315 C93.7605195,5.25526475 93.6586397,5.27709449 93.5564112,5.31101302 C93.4541828,5.34493154 93.3636971,5.39128492 93.2849515,5.45007455 C93.2062058,5.50886417 93.1451751,5.57951524 93.1018574,5.66202988 C93.0585398,5.74454452 93.042325,5.84254011 93.0532127,5.95601957 C93.0721228,6.15311548 93.1545594,6.289866 93.3005248,6.36627525 C93.4464902,6.44268449 93.6599913,6.50055775 93.9410344,6.53989677 L94.5550308,6.62564878 C94.8539918,6.66326869 95.1101215,6.77280629 95.3234278,6.95426486 C95.5367341,7.13572343 95.6577113,7.3757642 95.6863631,7.67439436 C95.7081384,7.90135329 95.6806181,8.10139407 95.6038012,8.27452271 C95.5269843,8.44765135 95.4174409,8.59377995 95.2751676,8.71291291 C95.1328943,8.83204586 94.9655044,8.92495644 94.7729927,8.99164743 C94.5804811,9.05833842 94.382694,9.10142486 94.1796255,9.12090806 C93.8571049,9.15185196 93.5511126,9.11942828 93.2616393,9.02363604 C92.972166,8.92784381 92.7145594,8.74009051 92.4888118,8.4603705 L92.9659444,8.06198069 C93.1037336,8.24164329 93.2691517,8.37947347 93.4622038,8.47547536 C93.6552559,8.57147726 93.8772033,8.60744392 94.1280526,8.58337644 C94.2475047,8.57191574 94.3656656,8.54701705 94.482539,8.50867963 C94.5994124,8.47034222 94.7014134,8.4183634 94.7885449,8.35274162 C94.8756764,8.28711984 94.9433133,8.20679372 94.9914575,8.11176083 C95.0396017,8.01672795 95.0579431,7.90948708 95.0464824,7.79003501 C95.0264262,7.5809939 94.9343146,7.43763727 94.7701449,7.35996083 C94.6059751,7.2822844 94.4108214,7.22717144 94.1846777,7.19462031 L93.5984175,7.11524851 C93.5250271,7.10420712 93.4251086,7.08365624 93.298659,7.05359524 C93.1722094,7.02353423 93.0467423,6.97228337 92.9222541,6.89984111 C92.7977658,6.82739885 92.6872685,6.72799867 92.5907588,6.60163759 C92.494249,6.4752765 92.4365399,6.31355043 92.4176298,6.11645452 C92.3970005,5.9014408 92.4222509,5.70915218 92.4933817,5.53958288 C92.5645125,5.37001358 92.6683699,5.22744425 92.8049571,5.11187064 C92.9415443,4.99629702 93.0999755,4.90424598 93.2802554,4.83571476 C93.4605353,4.76718354 93.6492203,4.72346351 93.8463163,4.70455334 C94.1389738,4.67647462 94.4161669,4.70714079 94.677904,4.79655278 C94.939641,4.88596476 95.152371,5.0614481 95.3161005,5.32300804 L94.8210502,5.72311695 Z M100.544059,4.71292106 L99.5496258,4.80833094 L99.9003215,8.46354591 L99.3090368,8.52027611 L98.958341,4.86506114 L98.0714138,4.95015644 L98.0198409,4.41262483 L98.9067681,4.32752953 L98.7967459,3.18079542 C98.7434536,2.62534331 98.8338996,2.2173442 99.0680867,1.95678586 C99.3022737,1.69622751 99.6313898,1.54560785 100.055445,1.50492235 C100.139061,1.49689986 100.224742,1.49470674 100.312491,1.49834294 C100.40024,1.50197914 100.486781,1.50874479 100.572116,1.51864011 L100.516183,2.06648631 C100.442793,2.05544492 100.366704,2.04767647 100.287914,2.04318072 C100.209124,2.03868497 100.130908,2.0401618 100.053264,2.04761126 C99.892004,2.06308321 99.7631874,2.1025661 99.6668104,2.16606113 C99.5704335,2.22955616 99.5000969,2.31315506 99.4557985,2.41686033 C99.4115002,2.5205656 99.3866959,2.63897465 99.3813848,2.77209103 C99.3760738,2.90520741 99.3805812,3.04642102 99.394907,3.1957361 L99.4980529,4.27079933 L100.492486,4.17538945 L100.544059,4.71292106 Z M101.760896,2.426254 C101.77293,2.55167867 101.738021,2.65900223 101.656168,2.74822791 C101.574315,2.83745358 101.479636,2.88722299 101.372129,2.89753762 C101.264623,2.90785225 101.162208,2.87699272 101.064883,2.80495811 C100.967558,2.73292349 100.91288,2.63419533 100.900846,2.50877066 C100.888812,2.38334599 100.923721,2.27602242 101.005574,2.18679675 C101.087427,2.09757108 101.182106,2.04780167 101.289613,2.03748704 C101.39712,2.02717241 101.499534,2.05803194 101.596859,2.13006655 C101.694184,2.20210117 101.748863,2.30082933 101.760896,2.426254 Z M102.183501,8.24448865 L101.592216,8.30121885 L101.189947,4.10847227 L101.781232,4.05174207 L102.183501,8.24448865 Z M103.629467,5.99008604 C103.651815,6.22301757 103.710059,6.43743291 103.8042,6.63333848 C103.89834,6.82924406 104.021257,6.99526199 104.172953,7.13139726 C104.324648,7.26753254 104.501703,7.3695882 104.704122,7.4375673 C104.90654,7.50554641 105.130184,7.5277884 105.375061,7.50429396 C105.613965,7.48137255 105.832287,7.41672659 106.030033,7.31035413 C106.227779,7.20398166 106.394144,7.06897698 106.529133,6.90533601 C106.664122,6.74169505 106.763682,6.55433188 106.827815,6.34324087 C106.891948,6.13214986 106.91284,5.91014193 106.890492,5.6772104 C106.868144,5.44427887 106.805421,5.2302933 106.702321,5.03524728 C106.599221,4.84020126 106.465853,4.67518612 106.302212,4.54019692 C106.138571,4.40520771 105.949572,4.30429811 105.735208,4.23746507 C105.520844,4.17063204 105.294213,4.14867655 105.055309,4.17159796 C104.810432,4.1950924 104.595097,4.25945186 104.409296,4.36467825 C104.223496,4.46990464 104.069076,4.60376327 103.946032,4.76625817 C103.822988,4.92875306 103.73388,5.11511344 103.678706,5.32534489 C103.623531,5.53557634 103.607119,5.75715451 103.629467,5.99008604 Z M107.656035,7.71943213 L107.06475,7.77616233 L106.997705,7.07737124 L106.979787,7.07909033 C106.897978,7.23160138 106.796248,7.36492541 106.674592,7.47906644 C106.552936,7.59320747 106.423591,7.69000228 106.286552,7.76945376 C106.149513,7.84890524 106.006277,7.91086776 105.856841,7.95534317 C105.707405,7.99981859 105.564004,8.02864577 105.426634,8.04182558 C105.098141,8.07334251 104.792722,8.04689134 104.510367,7.96247128 C104.228012,7.87805122 103.978836,7.74675029 103.76283,7.56856454 C103.546824,7.39037879 103.370683,7.17220619 103.234404,6.91404019 C103.098124,6.65587419 103.0148,6.36852151 102.984429,6.05197353 C102.954058,5.73542556 102.981226,5.43747189 103.065932,5.15810358 C103.150639,4.87873528 103.282083,4.63105181 103.460269,4.41504574 C103.638454,4.19903967 103.85812,4.02275615 104.119272,3.88618988 C104.380425,3.74962362 104.675243,3.66558328 105.003736,3.63406635 C105.141106,3.62088654 105.287372,3.62192193 105.442539,3.63717255 C105.597705,3.65242317 105.750109,3.68602087 105.899755,3.73796666 C106.049401,3.78991245 106.194791,3.86034803 106.33593,3.94927552 C106.477069,4.038203 106.602294,4.14975203 106.711608,4.28392594 L106.729526,4.28220685 L106.414931,1.00326401 L107.006216,0.946533808 L107.656035,7.71943213 Z M111.838492,7.3181506 C111.815659,7.2058172 111.79745,7.09454885 111.783862,6.98434221 L111.74715,6.64881472 L111.74715,6.64881472 L111.729232,6.65053382 C111.674421,6.77031667 111.600834,6.88285803 111.508468,6.98816129 C111.416102,7.09346454 111.310504,7.18647411 111.191669,7.26719278 C111.072834,7.34791146 110.945103,7.41441393 110.808471,7.46670218 C110.67184,7.51899042 110.534841,7.55172396 110.397472,7.56490377 C109.859937,7.61647694 109.449156,7.512736 109.165115,7.25367786 C108.881073,6.99461971 108.713842,6.60230198 108.663415,6.07671288 L108.408129,3.4159314 L108.999414,3.3592012 L109.222037,5.679546 C109.244385,5.91247753 109.282072,6.11681017 109.335099,6.29255006 C109.388125,6.46828995 109.463813,6.6132224 109.562163,6.72735176 C109.660513,6.84148112 109.785858,6.92288106 109.938204,6.97155403 C110.09055,7.02022701 110.277213,7.03396214 110.498199,7.01275983 L110.559286,7.00111252 C110.602455,6.99118429 110.664563,6.97509917 110.745609,6.95285704 C110.880687,6.91578681 111.019217,6.83619327 111.161204,6.71407401 C111.303191,6.59195475 111.423594,6.41766053 111.522416,6.1911861 C111.621239,5.96471168 111.652313,5.66035572 111.615639,5.27810911 L111.409347,3.12798266 L112.000632,3.07125246 L112.314367,6.34123644 C112.321625,6.41688941 112.332148,6.50562288 112.345935,6.6074381 L112.369064,6.76997241 C112.394641,6.94231835 112.420851,7.10555968 112.447695,7.2597013 L111.838492,7.3181506 Z M116.403064,3.64341187 C116.286631,3.49786578 116.132177,3.38007986 115.939698,3.29005057 C115.747219,3.20002128 115.534517,3.16618133 115.301585,3.1885297 C115.056136,3.20605154 114.84037,3.26593161 114.654283,3.3681717 C114.468196,3.47041179 114.313633,3.6027773 114.190589,3.76527219 C114.067545,3.92776708 113.980073,4.11547733 113.928172,4.32840857 C113.87627,4.54133981 113.861781,4.7672541 113.884702,5.00615824 C113.907623,5.24506237 113.964804,5.46410035 114.056245,5.66327874 C114.147686,5.86245714 114.269252,6.03011145 114.420948,6.16624673 C114.572644,6.302382 114.749555,6.40294453 114.951687,6.46793734 C115.153819,6.53293014 115.377034,6.55069275 115.621337,6.52122571 C115.854269,6.49887733 116.056657,6.42521204 116.228506,6.3002276 C116.400356,6.17524317 116.529597,6.03023849 116.616232,5.8652092 L117.135252,6.18610685 C116.949705,6.45103982 116.731125,6.65434291 116.479505,6.79602222 C116.227884,6.93770154 115.959022,7.02527903 115.67291,7.05875732 C115.333045,7.09739293 115.020446,7.0746443 114.735106,6.99051076 C114.449765,6.90637722 114.200588,6.77507628 113.987568,6.59660401 C113.774549,6.41813175 113.604238,6.19789299 113.47663,5.93588114 C113.349023,5.67386928 113.270035,5.38459371 113.239664,5.06804573 C113.209293,4.75149775 113.231838,4.45248072 113.307299,4.17098567 C113.38276,3.88949062 113.508089,3.64088705 113.683288,3.4251675 C113.858488,3.20944794 114.078153,3.03316442 114.342292,2.89631164 C114.606431,2.75945886 114.909001,2.67768849 115.250012,2.65099809 C115.53727,2.62946501 115.81788,2.66432405 116.091848,2.75557627 C116.365817,2.84682848 116.619065,3.00486247 116.851601,3.22968298 L116.403064,3.64341187 Z M118.141332,0.854650243 C118.153366,0.980074913 118.118457,1.08739847 118.036603,1.17662415 C117.95475,1.26584982 117.860072,1.31561923 117.752565,1.32593386 C117.645058,1.33624849 117.542644,1.30538896 117.445319,1.23335435 C117.347994,1.16131973 117.293315,1.06259157 117.281281,0.937166897 C117.269248,0.811742226 117.304157,0.704418665 117.38601,0.615192992 C117.467863,0.525967319 117.562541,0.476197912 117.670048,0.465883279 C117.777555,0.455568646 117.87997,0.486428175 117.977295,0.558462792 C118.07462,0.63049741 118.129298,0.729225573 118.141332,0.854650243 Z M118.563936,6.67288489 L117.972652,6.72961509 L117.570383,2.53686851 L118.161668,2.48013831 L118.563936,6.67288489 Z M122.340066,4.20395854 L122.035464,4.23318319 C121.886149,4.24750907 121.700225,4.27288179 121.477684,4.30930212 C121.255144,4.34572244 121.043572,4.40218648 120.842961,4.47869593 C120.64235,4.55520538 120.474613,4.66020424 120.339745,4.79369567 C120.204877,4.9271871 120.147472,5.0984508 120.167528,5.30749192 C120.180708,5.44486179 120.220395,5.56009706 120.286589,5.65320118 C120.352784,5.7463053 120.43667,5.81962815 120.538248,5.87317192 C120.639827,5.9267157 120.750137,5.96133833 120.869181,5.97704086 C120.988225,5.99274339 121.107472,5.99486427 121.226924,5.98340356 C121.441938,5.9627743 121.625141,5.90903213 121.776538,5.82217546 C121.927936,5.73531879 122.051512,5.6255156 122.147272,5.4927626 C122.243032,5.36000959 122.308415,5.20907666 122.343424,5.03995927 C122.378432,4.87084188 122.387054,4.69371049 122.36929,4.50855979 L122.340066,4.20395854 Z M122.29365,3.72018009 L122.283335,3.61267376 C122.213998,2.88998876 121.820979,2.56303327 121.104267,2.63179749 C120.614513,2.67878638 120.203237,2.88400191 119.870425,3.24745024 L119.471672,2.86076575 C119.826897,2.4168084 120.398693,2.1570133 121.187077,2.08137265 C121.390145,2.06188946 121.58861,2.07298541 121.782478,2.11466083 C121.976345,2.15633626 122.147835,2.23180212 122.296952,2.34106068 C122.446069,2.45031923 122.571316,2.59351047 122.672696,2.77063868 C122.774077,2.94776689 122.837086,3.16473872 122.861727,3.42156066 L123.041373,5.29396245 C123.056845,5.45522274 123.080498,5.62322997 123.112334,5.79798918 L123.158952,6.03650235 C123.174112,6.1081317 123.188893,6.1718862 123.203296,6.22776638 L122.629929,6.28277748 C122.60227,6.18296233 122.57823,6.07376014 122.557811,5.95516762 C122.537391,5.83657511 122.521738,5.72054086 122.51085,5.6070614 L122.492932,5.6087805 C122.34666,5.90611087 122.161441,6.12730937 121.93727,6.27238263 C121.713099,6.41745589 121.430799,6.50632269 121.090361,6.53898569 C120.90521,6.55674978 120.723599,6.5485574 120.545523,6.51440829 C120.367447,6.48025918 120.206205,6.41737194 120.061793,6.32574467 C119.917382,6.2341174 119.797556,6.11602284 119.702314,5.97145743 C119.607071,5.82689202 119.549709,5.65307766 119.530226,5.45000915 C119.497563,5.10957076 119.560015,4.83384863 119.717583,4.62283448 C119.875151,4.41182033 120.082238,4.24578489 120.33885,4.12472317 C120.595463,4.00366145 120.873427,3.91671755 121.172751,3.86388886 C121.472076,3.81106017 121.747158,3.77261266 121.998008,3.74854519 L122.29365,3.72018009 Z" id="autonomiamhuiusfiducia" fill-rule="nonzero"></path>
                        </g>
                    </g>
                </g>
            </g>
        </g>
    </g>
</svg>